<svg width="6" height="10" viewBox="0 0 6 10" fill="none" xmlns="http://www.w3.org/2000/svg">
<path fill-rule="evenodd" clip-rule="evenodd" d="M0.954987 9.66659C0.605003 9.66659 0.333374 9.393 0.333374 9.04577C0.333374 8.87215 0.401281 8.71431 0.521425 8.5933L4.17797 4.99466L0.521425 1.40653C0.401281 1.28553 0.333374 1.12243 0.333374 0.954071C0.333374 0.606833 0.605003 0.333252 0.954987 0.333252C1.12214 0.333252 1.26841 0.396386 1.38333 0.512132L5.44731 4.51063C5.59358 4.64742 5.66671 4.81578 5.66671 4.99992C5.66671 5.18406 5.59358 5.3419 5.45254 5.48395L1.38855 9.48771C1.26841 9.60345 1.12214 9.66659 0.954987 9.66659Z" fill="#1A1A1A"/>
</svg>
