<svg width="46" height="46" viewBox="0 0 46 46" fill="none" xmlns="http://www.w3.org/2000/svg">
<mask id="path-1-inside-1_3953_17767" fill="white">
<path d="M44.2029 21.1137C43.2104 21.1137 42.406 21.9181 42.406 22.9103C42.406 25.4221 41.8322 27.0894 40.6516 28.0075C39.8023 28.6684 38.6779 28.9105 37.6752 29.0649C38.5526 26.3461 39.8237 21.2615 39.888 14.4821C39.9283 10.2444 39.464 5.84903 38.508 1.41824C38.2985 0.448208 37.3428 -0.168417 36.3725 0.0407516C35.4024 0.250271 34.7858 1.20627 34.995 2.1763C35.4021 4.06268 35.7134 5.94028 35.9299 7.79893C33.675 6.08487 31.7065 5.49738 31.5823 5.46158C30.6291 5.18608 29.6327 5.73567 29.3573 6.68921C29.0818 7.6424 29.6313 8.63876 30.5849 8.91426C30.6179 8.92373 33.8323 9.92816 36.29 13.2155C36.296 13.6279 36.2984 14.0389 36.2945 14.4481C36.2847 15.456 36.2461 16.424 36.1847 17.3491C35.5712 16.6415 34.8535 15.9912 34.0337 15.4058C31.8262 13.8304 29.6257 13.2812 29.5331 13.2587C28.5687 13.0236 27.5934 13.6132 27.3579 14.5772C27.1224 15.5413 27.7099 16.5127 28.6739 16.7482C28.6908 16.7525 30.3838 17.1894 32.0336 18.3942C34.0793 19.8882 35.1427 21.8743 35.1947 24.2965C35.1954 24.3264 35.1989 24.3552 35.201 24.3843C34.5861 27.2024 33.8961 29.0292 33.6606 29.6107C32.8173 29.7096 31.8971 29.8563 30.9808 30.1431C31.3661 28.5522 31.4489 26.7536 30.4382 24.7851C29.9848 23.9021 28.9017 23.5539 28.0187 24.0074C27.1361 24.4604 26.7879 25.5438 27.2414 26.4265C27.9952 27.8949 27.6271 29.099 26.9118 31.1008C26.5465 32.1242 26.1681 33.182 26.0183 34.364C25.9839 34.6325 25.9449 34.8585 25.9035 35.0975C25.7554 35.9531 25.6031 36.8344 25.5582 39.6195C24.7264 39.443 23.8701 39.3517 23.0001 39.3517C22.1297 39.3517 21.2734 39.443 20.4416 39.6195C20.3967 36.8344 20.2444 35.9531 20.0963 35.0975C20.0549 34.8585 20.0159 34.6325 19.9815 34.3636C19.8397 33.2452 19.5063 32.2042 19.1842 31.1973C18.5268 29.1443 18.1618 27.8184 18.9083 26.4823C19.3926 25.6161 19.0827 24.5215 18.2166 24.0372C17.3501 23.5532 16.2555 23.8631 15.7711 24.7293C14.7 26.6462 14.7804 28.5118 15.1584 30.1883C14.1957 29.8718 13.2246 29.7146 12.3381 29.6103C12.1033 29.0355 11.4127 27.2217 10.7974 24.4043C10.8002 24.3685 10.8045 24.333 10.8052 24.2965C10.8571 21.8743 11.9205 19.8882 13.9665 18.3942C15.6101 17.1936 17.2971 16.7556 17.3259 16.7482C18.2861 16.5099 18.8736 15.5399 18.6384 14.5779C18.4033 13.6142 17.4312 13.0232 16.4667 13.2587C16.3741 13.2812 14.174 13.8304 11.9661 15.4058C11.1459 15.9912 10.4279 16.6419 9.81441 17.3501C9.7537 16.4254 9.71509 15.4571 9.70526 14.4481C9.7014 14.0389 9.70386 13.6279 9.71018 13.2155C12.1718 9.92255 15.3911 8.92128 15.4248 8.91145L15.4153 8.91391C15.4153 8.91391 16.7643 8.33729 16.4667 6.68921C16.1692 5.04114 14.4175 5.46158 14.4175 5.46158C14.2933 5.49738 12.3248 6.08487 10.0699 7.79893C10.2864 5.94028 10.5977 4.06268 11.0048 2.1763C11.214 1.20627 10.5974 0.250271 9.62735 0.0407516C8.65802 -0.168417 7.70132 0.448208 7.49215 1.41824C6.5358 5.84903 6.07149 10.2444 6.11185 14.4821C6.17608 21.2555 7.44513 26.337 8.32216 29.0576C5.99428 28.6842 3.59376 27.938 3.59376 22.9103C3.59376 21.9178 2.78903 21.1134 1.79688 21.1134C0.804385 21.1134 0 21.9178 0 22.9103C0 26.5332 1.06409 29.1955 3.16244 30.8232C4.92879 32.193 7.01029 32.4994 8.38779 32.7022C8.70996 32.7496 9.01459 32.7945 9.22867 32.8412C9.77089 32.9602 10.3851 33.0212 11.035 33.0858C13.797 33.3606 15.8052 33.7309 16.4874 36.0047C16.531 36.15 16.5913 36.2855 16.6657 36.4101C16.7679 37.1748 16.8524 38.3389 16.8602 41.0033C15.9589 41.5294 15.1187 42.1752 14.3614 42.9332C13.6598 43.6355 13.6605 44.7733 14.3628 45.4745C15.0647 46.1757 16.2025 46.1753 16.904 45.4731C18.5321 43.8429 20.6971 42.9455 22.9997 42.9455C25.3023 42.9455 27.4674 43.8429 29.0958 45.4731C29.4467 45.8244 29.9068 45.9999 30.3669 45.9999C30.8263 45.9999 31.2861 45.8247 31.637 45.4745C32.339 44.7729 32.3397 43.6351 31.6381 42.9332C30.8807 42.1748 30.0409 41.5294 29.1393 41.003C29.1474 38.3389 29.2316 37.1748 29.3341 36.4101C29.4081 36.2855 29.4685 36.15 29.5124 36.0047C30.1946 33.7305 32.2024 33.3603 34.9648 33.0858C35.6147 33.0212 36.2286 32.9602 36.7711 32.8412C36.9887 32.7935 37.3032 32.7493 37.6359 32.7022C39.0137 32.5082 41.0956 32.2148 42.8581 30.8443C44.9427 29.2229 45.9998 26.5532 45.9998 22.9103C45.9998 21.9181 45.1954 21.1137 44.2029 21.1137Z"/>
</mask>
<path d="M44.2029 21.1137C43.2104 21.1137 42.406 21.9181 42.406 22.9103C42.406 25.4221 41.8322 27.0894 40.6516 28.0075C39.8023 28.6684 38.6779 28.9105 37.6752 29.0649C38.5526 26.3461 39.8237 21.2615 39.888 14.4821C39.9283 10.2444 39.464 5.84903 38.508 1.41824C38.2985 0.448208 37.3428 -0.168417 36.3725 0.0407516C35.4024 0.250271 34.7858 1.20627 34.995 2.1763C35.4021 4.06268 35.7134 5.94028 35.9299 7.79893C33.675 6.08487 31.7065 5.49738 31.5823 5.46158C30.6291 5.18608 29.6327 5.73567 29.3573 6.68921C29.0818 7.6424 29.6313 8.63876 30.5849 8.91426C30.6179 8.92373 33.8323 9.92816 36.29 13.2155C36.296 13.6279 36.2984 14.0389 36.2945 14.4481C36.2847 15.456 36.2461 16.424 36.1847 17.3491C35.5712 16.6415 34.8535 15.9912 34.0337 15.4058C31.8262 13.8304 29.6257 13.2812 29.5331 13.2587C28.5687 13.0236 27.5934 13.6132 27.3579 14.5772C27.1224 15.5413 27.7099 16.5127 28.6739 16.7482C28.6908 16.7525 30.3838 17.1894 32.0336 18.3942C34.0793 19.8882 35.1427 21.8743 35.1947 24.2965C35.1954 24.3264 35.1989 24.3552 35.201 24.3843C34.5861 27.2024 33.8961 29.0292 33.6606 29.6107C32.8173 29.7096 31.8971 29.8563 30.9808 30.1431C31.3661 28.5522 31.4489 26.7536 30.4382 24.7851C29.9848 23.9021 28.9017 23.5539 28.0187 24.0074C27.1361 24.4604 26.7879 25.5438 27.2414 26.4265C27.9952 27.8949 27.6271 29.099 26.9118 31.1008C26.5465 32.1242 26.1681 33.182 26.0183 34.364C25.9839 34.6325 25.9449 34.8585 25.9035 35.0975C25.7554 35.9531 25.6031 36.8344 25.5582 39.6195C24.7264 39.443 23.8701 39.3517 23.0001 39.3517C22.1297 39.3517 21.2734 39.443 20.4416 39.6195C20.3967 36.8344 20.2444 35.9531 20.0963 35.0975C20.0549 34.8585 20.0159 34.6325 19.9815 34.3636C19.8397 33.2452 19.5063 32.2042 19.1842 31.1973C18.5268 29.1443 18.1618 27.8184 18.9083 26.4823C19.3926 25.6161 19.0827 24.5215 18.2166 24.0372C17.3501 23.5532 16.2555 23.8631 15.7711 24.7293C14.7 26.6462 14.7804 28.5118 15.1584 30.1883C14.1957 29.8718 13.2246 29.7146 12.3381 29.6103C12.1033 29.0355 11.4127 27.2217 10.7974 24.4043C10.8002 24.3685 10.8045 24.333 10.8052 24.2965C10.8571 21.8743 11.9205 19.8882 13.9665 18.3942C15.6101 17.1936 17.2971 16.7556 17.3259 16.7482C18.2861 16.5099 18.8736 15.5399 18.6384 14.5779C18.4033 13.6142 17.4312 13.0232 16.4667 13.2587C16.3741 13.2812 14.174 13.8304 11.9661 15.4058C11.1459 15.9912 10.4279 16.6419 9.81441 17.3501C9.7537 16.4254 9.71509 15.4571 9.70526 14.4481C9.7014 14.0389 9.70386 13.6279 9.71018 13.2155C12.1718 9.92255 15.3911 8.92128 15.4248 8.91145L15.4153 8.91391C15.4153 8.91391 16.7643 8.33729 16.4667 6.68921C16.1692 5.04114 14.4175 5.46158 14.4175 5.46158C14.2933 5.49738 12.3248 6.08487 10.0699 7.79893C10.2864 5.94028 10.5977 4.06268 11.0048 2.1763C11.214 1.20627 10.5974 0.250271 9.62735 0.0407516C8.65802 -0.168417 7.70132 0.448208 7.49215 1.41824C6.5358 5.84903 6.07149 10.2444 6.11185 14.4821C6.17608 21.2555 7.44513 26.337 8.32216 29.0576C5.99428 28.6842 3.59376 27.938 3.59376 22.9103C3.59376 21.9178 2.78903 21.1134 1.79688 21.1134C0.804385 21.1134 0 21.9178 0 22.9103C0 26.5332 1.06409 29.1955 3.16244 30.8232C4.92879 32.193 7.01029 32.4994 8.38779 32.7022C8.70996 32.7496 9.01459 32.7945 9.22867 32.8412C9.77089 32.9602 10.3851 33.0212 11.035 33.0858C13.797 33.3606 15.8052 33.7309 16.4874 36.0047C16.531 36.15 16.5913 36.2855 16.6657 36.4101C16.7679 37.1748 16.8524 38.3389 16.8602 41.0033C15.9589 41.5294 15.1187 42.1752 14.3614 42.9332C13.6598 43.6355 13.6605 44.7733 14.3628 45.4745C15.0647 46.1757 16.2025 46.1753 16.904 45.4731C18.5321 43.8429 20.6971 42.9455 22.9997 42.9455C25.3023 42.9455 27.4674 43.8429 29.0958 45.4731C29.4467 45.8244 29.9068 45.9999 30.3669 45.9999C30.8263 45.9999 31.2861 45.8247 31.637 45.4745C32.339 44.7729 32.3397 43.6351 31.6381 42.9332C30.8807 42.1748 30.0409 41.5294 29.1393 41.003C29.1474 38.3389 29.2316 37.1748 29.3341 36.4101C29.4081 36.2855 29.4685 36.15 29.5124 36.0047C30.1946 33.7305 32.2024 33.3603 34.9648 33.0858C35.6147 33.0212 36.2286 32.9602 36.7711 32.8412C36.9887 32.7935 37.3032 32.7493 37.6359 32.7022C39.0137 32.5082 41.0956 32.2148 42.8581 30.8443C44.9427 29.2229 45.9998 26.5532 45.9998 22.9103C45.9998 21.9181 45.1954 21.1137 44.2029 21.1137Z" fill="#7B8E98" stroke="white" stroke-width="1.6" mask="url(#path-1-inside-1_3953_17767)"/>
</svg>
